<?xml version="1.0" encoding="UTF-8"?>
<svg id="Layer_1" xmlns="http://www.w3.org/2000/svg" version="1.1" viewBox="0 0 160 160">
  <!-- Generator: Adobe Illustrator 29.6.0, SVG Export Plug-In . SVG Version: 2.1.1 Build 207)  -->
  <g>
    <path d="M31.02,81v2.9h-5.79v11.43h-3.89v-11.43h-5.77v-2.9h15.46M32.02,80H14.56v4.9h5.77v11.43h5.89v-11.43h5.79v-4.9h0Z"/>
    <path d="M69.66,81v14.33h-3.89v-5.7h-7.75v5.7h-3.87v-14.33h3.87v5.7h7.75v-5.7h3.89M70.66,80h-5.89v5.7h-5.75v-5.7h-5.87v16.33h5.87v-5.7h5.75v5.7h5.89v-16.33h0Z"/>
    <path d="M89.38,81l-5.78,9.81-.14.23v4.29h-3.89v-4.35l-.14-.24-5.76-9.75h3.84l2.92,5.24.29.51h1.62l.29-.51,2.92-5.24h3.82M91.13,80h-6.16l-3.21,5.75h-.45l-3.21-5.75h-6.18l6.65,11.26v5.07h5.89v-5.02l6.67-11.31h0Z"/>
    <path d="M101.94,81c4.25,0,6.23,1.75,6.23,5.51s-1.97,5.49-6.21,5.49h-4.65v3.32h-3.87v-14.33h8.51M97.3,89.13h4.11c1.71,0,2.81-1.03,2.81-2.61s-1.09-2.63-2.79-2.63h-4.13v5.25M101.94,80h-9.51v16.33h5.87v-3.32h3.65c4.47,0,7.21-1.94,7.21-6.49s-2.74-6.51-7.23-6.51h0ZM98.3,88.13v-3.25h3.13c1.07,0,1.79.54,1.79,1.63s-.72,1.61-1.81,1.61h-3.11Z"/>
    <path d="M124.96,81v2.69h-9.16v3.59h8.81v1.77h-8.81v3.57h9.16v2.7h-13.03v-14.33h13.03M125.96,80h-15.03v16.33h15.03v-4.7h-9.16v-1.57h8.81v-3.77h-8.81v-1.59h9.16v-4.69h0Z"/>
    <path d="M136.38,81c5.5,0,8.06,2.28,8.06,7.17s-2.64,7.16-8.06,7.16h-7.44v-14.33h7.44M132.83,92.41h3.55c2.6,0,4.15-1.59,4.15-4.25s-1.51-4.25-4.15-4.25h-3.52v1s-.02,6.49-.02,6.49v1M136.38,80h-8.44v16.33h8.44c6.75,0,9.06-3.46,9.06-8.16s-2.31-8.17-9.06-8.17h0ZM133.83,91.41l.02-6.49h2.53c1.73,0,3.15.8,3.15,3.25s-1.42,3.25-3.15,3.25h-2.55Z"/>
    <path d="M49.97,81v3.94h-14.87v-3.94h14.87M50.97,80h-16.87v5.94h16.87v-5.94h0Z"/>
    <path d="M49.97,91.39v3.94h-14.87v-3.94h14.87M50.97,90.39h-16.87v5.94h16.87v-5.94h0Z"/>
  </g>
  <g>
    <path d="M32.02,65.09h-5.79v11.43h-5.89v-11.43h-5.77v-4.9h17.46v4.9Z"/>
    <path d="M70.66,60.19v16.33h-5.89v-5.7h-5.75v5.7h-5.87v-16.33h5.87v5.7h5.75v-5.7h5.89Z"/>
    <path d="M84.46,71.5v5.02h-5.89v-5.07l-6.65-11.26h6.18l3.21,5.75h.45l3.21-5.75h6.16l-6.67,11.31Z"/>
    <path d="M92.43,60.19h9.51c4.49,0,7.23,1.94,7.23,6.51s-2.74,6.49-7.21,6.49h-3.65v3.32h-5.87v-16.33ZM101.41,68.32c1.09,0,1.81-.54,1.81-1.61s-.72-1.63-1.79-1.63h-3.13v3.25h3.11Z"/>
    <path d="M110.93,60.19h15.03v4.69h-9.16v1.59h8.81v3.77h-8.81v1.57h9.16v4.7h-15.03v-16.33Z"/>
    <path d="M145.44,68.36c0,4.7-2.31,8.16-9.06,8.16h-8.44v-16.33h8.44c6.75,0,9.06,3.44,9.06,8.17ZM139.53,68.36c0-2.45-1.42-3.25-3.15-3.25h-2.53l-.02,6.49h2.55c1.73,0,3.15-.82,3.15-3.25Z"/>
    <rect x="39.57" y="54.72" width="5.94" height="16.87" transform="translate(105.69 20.62) rotate(90)"/>
    <rect x="39.57" y="65.12" width="5.94" height="16.87" transform="translate(116.09 31.02) rotate(90)"/>
  </g>
</svg>